<svg xmlns="http://www.w3.org/2000/svg" viewBox="0 0 200 56" width="200" height="56">
  <!-- Levcon.ai — Full Logo (Outlined, font-independent) -->
  <!-- All text converted to paths for universal compatibility -->

  <!-- Bildmarke: L in square frame -->
  <rect x="4" y="4" width="48" height="48" fill="none" stroke="#1C1C1A" stroke-width="1.2" opacity="0.75"/>

  <!-- L serif letterform (approximated from Cormorant Garamond) -->
  <path d="M20 14 h4 v24 h10 v3.5 h-14 z" fill="#1C1C1A" opacity="0.75"/>

  <!-- Wortmarke: LEVCON.AI (approximated from DM Sans, wide tracking) -->
  <g fill="#1C1C1A" opacity="0.6">
    <!-- L -->
    <path d="M64 36 h2.2 v-8.5 h4 v8.5 h2.2 v-10.5 h-8.4 z"/>
    <!-- E -->
    <path d="M75 36 h6.5 v-2 h-4.3 v-2.5 h3.8 v-2 h-3.8 v-2.2 h4.3 v-2 h-6.5 z"/>
    <!-- V -->
    <path d="M84.5 25.5 h2.2 l2.8 7.5 2.8-7.5 h2.2 l-3.8 10.5 h-2.4 z"/>
    <!-- C -->
    <path d="M98.5 28.5 c0-1.8 1.4-3.2 3.2-3.2 c1.1 0 2.1 0.5 2.7 1.3 l-1.6 1.2 c-0.3-0.4-0.7-0.6-1.1-0.6 c-0.8 0-1.3 0.6-1.3 1.3 s0.6 1.3 1.3 1.3 c0.5 0 0.9-0.2 1.1-0.6 l1.6 1.2 c-0.6 0.8-1.6 1.3-2.7 1.3 c-1.8 0-3.2-1.4-3.2-3.2 z"/>
    <!-- O -->
    <path d="M106.5 28.5 c0-1.8 1.4-3.2 3-3.2 s3 1.4 3 3.2-1.4 3.2-3 3.2-3-1.4-3-3.2 z m1.8 0 c0 0.8 0.5 1.4 1.2 1.4 s1.2-0.6 1.2-1.4-0.5-1.4-1.2-1.4-1.2 0.6-1.2 1.4 z"/>
    <!-- N -->
    <path d="M114.5 25.5 h2 v5.5 l3.2-5.5 h2 v10.5 h-2 v-5.5 l-3.2 5.5 h-2 z"/>
    <!-- . -->
    <circle cx="123.5" cy="35.5" r="1.1"/>
    <!-- A -->
    <path d="M127 36 h-2.1 l3.5-10.5 h2.2 l3.5 10.5 h-2.1 l-0.6-2 h-3.8 z m1.2-4 h2.4 l-1.2-3.8 z"/>
    <!-- I -->
    <path d="M137 25.5 h2 v10.5 h-2 z"/>
  </g>
</svg>
